<?xml version="1.0" standalone="no"?>
<!DOCTYPE svg PUBLIC "-//W3C//DTD SVG 20010904//EN"
 "http://www.w3.org/TR/2001/REC-SVG-20010904/DTD/svg10.dtd">
<svg version="1.0" xmlns="http://www.w3.org/2000/svg"
 width="512.000000pt" height="512.000000pt" viewBox="0 0 512.000000 512.000000"
 preserveAspectRatio="xMidYMid meet">
<metadata>
Created by potrace 1.11, written by Peter Selinger 2001-2013
</metadata>
<g transform="translate(0.000000,512.000000) scale(0.100000,-0.100000)"
fill="#000000" stroke="none">
<path d="M2702 4273 c-96 -47 -163 -221 -163 -423 0 -75 3 -111 16 -185 18
-107 74 -246 130 -319 15 -19 47 -49 73 -66 110 -73 220 -13 280 153 33 92 44
162 42 282 -1 79 -2 97 -14 165 -31 173 -130 351 -220 394 -43 20 -102 20
-144 -1z"/>
<path d="M1790 3885 c-46 -21 -85 -68 -112 -135 -32 -79 -32 -271 0 -382 75
-265 242 -450 393 -436 68 7 114 45 152 127 29 60 31 76 33 181 2 93 -2 133
-21 207 -77 300 -288 508 -445 438z"/>
<path d="M3592 3863 c-48 -25 -83 -66 -117 -138 -52 -111 -76 -235 -76 -385 0
-304 116 -532 256 -506 101 19 196 195 220 406 42 369 -113 710 -283 623z"/>
<path d="M1172 2860 c-117 -60 -147 -233 -76 -431 42 -117 99 -204 186 -284
216 -200 435 -127 431 145 -4 327 -335 675 -541 570z"/>
<path d="M2641 2828 c-216 -34 -452 -202 -605 -433 -97 -146 -177 -342 -211
-520 -5 -22 -10 -47 -12 -55 -3 -8 -6 -89 -8 -180 -3 -134 1 -183 16 -259 71
-340 280 -551 546 -552 95 -1 157 13 241 51 35 17 66 30 68 30 11 0 124 88
177 139 33 31 84 90 115 131 30 41 57 77 59 79 2 3 18 -3 37 -11 18 -9 82 -29
142 -44 93 -24 129 -28 249 -28 209 -1 337 41 454 150 59 54 122 158 137 224
8 39 20 138 18 152 -1 7 -4 42 -8 78 -12 130 -83 302 -188 451 -59 84 -214
243 -303 310 -170 129 -394 236 -563 269 -26 5 -58 12 -72 15 -43 10 -233 12
-289 3z"/>
</g>
</svg>
